<?xml version="1.0" encoding="UTF-8" standalone="no"?>
<!DOCTYPE svg PUBLIC "-//W3C//DTD SVG 1.1//EN"
 "http://www.w3.org/Graphics/SVG/1.1/DTD/svg11.dtd">
<!-- Generated by graphviz version 8.0.5 (0)
 -->
<!-- Title: snakemake_dag Pages: 1 -->
<svg width="744pt" height="410pt"
 viewBox="0.00 0.00 743.50 409.75" xmlns="http://www.w3.org/2000/svg" xmlns:xlink="http://www.w3.org/1999/xlink">
<g id="graph0" class="graph" transform="scale(1 1) rotate(0) translate(4 405.75)">
<title>snakemake_dag</title>
<polygon fill="white" stroke="none" points="-4,4 -4,-405.75 739.5,-405.75 739.5,4 -4,4"/>
<!-- 0 -->
<g id="node1" class="node">
<title>0</title>
<path fill="none" stroke="#56c1d8" stroke-width="2" d="M387.88,-36C387.88,-36 357.88,-36 357.88,-36 351.88,-36 345.88,-30 345.88,-24 345.88,-24 345.88,-12 345.88,-12 345.88,-6 351.88,0 357.88,0 357.88,0 387.88,0 387.88,0 393.88,0 399.88,-6 399.88,-12 399.88,-12 399.88,-24 399.88,-24 399.88,-30 393.88,-36 387.88,-36"/>
<text text-anchor="middle" x="372.88" y="-14.12" font-family="sans" font-size="10.00">all</text>
</g>
<!-- 1 -->
<g id="node2" class="node">
<title>1</title>
<path fill="none" stroke="#61d856" stroke-width="2" d="M387.88,-180C387.88,-180 357.88,-180 357.88,-180 351.88,-180 345.88,-174 345.88,-168 345.88,-168 345.88,-156 345.88,-156 345.88,-150 351.88,-144 357.88,-144 357.88,-144 387.88,-144 387.88,-144 393.88,-144 399.88,-150 399.88,-156 399.88,-156 399.88,-168 399.88,-168 399.88,-174 393.88,-180 387.88,-180"/>
<text text-anchor="middle" x="372.88" y="-158.12" font-family="sans" font-size="10.00">multiqc</text>
</g>
<!-- 1&#45;&gt;0 -->
<g id="edge1" class="edge">
<title>1&#45;&gt;0</title>
<path fill="none" stroke="grey" stroke-width="2" d="M366.48,-143.11C363.19,-132.96 359.53,-119.93 357.88,-108 355.68,-92.15 355.68,-87.85 357.88,-72 358.91,-64.54 360.73,-56.66 362.75,-49.31"/>
<polygon fill="grey" stroke="grey" stroke-width="2" points="366.96,-49.47 366.48,-38.89 360.25,-47.46 366.96,-49.47"/>
</g>
<!-- 15 -->
<g id="node16" class="node">
<title>15</title>
<path fill="none" stroke="#d8ac56" stroke-width="2" d="M434.38,-108C434.38,-108 379.38,-108 379.38,-108 373.38,-108 367.38,-102 367.38,-96 367.38,-96 367.38,-84 367.38,-84 367.38,-78 373.38,-72 379.38,-72 379.38,-72 434.38,-72 434.38,-72 440.38,-72 446.38,-78 446.38,-84 446.38,-84 446.38,-96 446.38,-96 446.38,-102 440.38,-108 434.38,-108"/>
<text text-anchor="middle" x="406.88" y="-86.12" font-family="sans" font-size="10.00">merge_kallisto</text>
</g>
<!-- 1&#45;&gt;15 -->
<g id="edge21" class="edge">
<title>1&#45;&gt;15</title>
<path fill="none" stroke="grey" stroke-width="2" d="M381.45,-143.34C384.81,-136.43 388.75,-128.31 392.52,-120.56"/>
<polygon fill="grey" stroke="grey" stroke-width="2" points="395.96,-121.43 397.18,-110.9 389.66,-118.37 395.96,-121.43"/>
</g>
<!-- 2 -->
<g id="node3" class="node">
<title>2</title>
<path fill="none" stroke="#d8c356" stroke-width="2" stroke-dasharray="5,2" d="M279.88,-252C279.88,-252 249.88,-252 249.88,-252 243.88,-252 237.88,-246 237.88,-240 237.88,-240 237.88,-228 237.88,-228 237.88,-222 243.88,-216 249.88,-216 249.88,-216 279.88,-216 279.88,-216 285.88,-216 291.88,-222 291.88,-228 291.88,-228 291.88,-240 291.88,-240 291.88,-246 285.88,-252 279.88,-252"/>
<text text-anchor="middle" x="264.88" y="-230.12" font-family="sans" font-size="10.00">fastqc</text>
</g>
<!-- 2&#45;&gt;1 -->
<g id="edge3" class="edge">
<title>2&#45;&gt;1</title>
<path fill="none" stroke="grey" stroke-width="2" d="M292.41,-215.15C305.23,-206.84 320.69,-196.82 334.63,-187.79"/>
<polygon fill="grey" stroke="grey" stroke-width="2" points="336.9,-190.19 343.39,-181.81 333.1,-184.31 336.9,-190.19"/>
</g>
<!-- 3 -->
<g id="node4" class="node">
<title>3</title>
<path fill="none" stroke="#56d8b9" stroke-width="2" stroke-dasharray="5,2" d="M353.5,-401.75C353.5,-401.75 194.25,-401.75 194.25,-401.75 188.25,-401.75 182.25,-395.75 182.25,-389.75 182.25,-389.75 182.25,-372 182.25,-372 182.25,-366 188.25,-360 194.25,-360 194.25,-360 353.5,-360 353.5,-360 359.5,-360 365.5,-366 365.5,-372 365.5,-372 365.5,-389.75 365.5,-389.75 365.5,-395.75 359.5,-401.75 353.5,-401.75"/>
<text text-anchor="middle" x="273.88" y="-388.25" font-family="sans" font-size="10.00">symlink_files</text>
<text text-anchor="middle" x="273.88" y="-377" font-family="sans" font-size="10.00">project: Mycolicibacterium_smegmatis</text>
<text text-anchor="middle" x="273.88" y="-365.75" font-family="sans" font-size="10.00">subsample: test</text>
</g>
<!-- 3&#45;&gt;2 -->
<g id="edge8" class="edge">
<title>3&#45;&gt;2</title>
<path fill="none" stroke="grey" stroke-width="2" d="M272.59,-359.12C271.07,-334.64 268.52,-293.74 266.78,-265.63"/>
<polygon fill="grey" stroke="grey" stroke-width="2" points="270.11,-265.74 265.99,-255.98 263.12,-266.18 270.11,-265.74"/>
</g>
<!-- 4 -->
<g id="node5" class="node">
<title>4</title>
<path fill="none" stroke="#d88d56" stroke-width="2" stroke-dasharray="5,2" d="M234,-324C234,-324 185.75,-324 185.75,-324 179.75,-324 173.75,-318 173.75,-312 173.75,-312 173.75,-300 173.75,-300 173.75,-294 179.75,-288 185.75,-288 185.75,-288 234,-288 234,-288 240,-288 246,-294 246,-300 246,-300 246,-312 246,-312 246,-318 240,-324 234,-324"/>
<text text-anchor="middle" x="209.88" y="-302.12" font-family="sans" font-size="10.00">fastq_screen</text>
</g>
<!-- 3&#45;&gt;4 -->
<g id="edge10" class="edge">
<title>3&#45;&gt;4</title>
<path fill="none" stroke="grey" stroke-width="2" d="M255.71,-359.19C248.88,-351.41 241,-342.44 233.73,-334.17"/>
<polygon fill="grey" stroke="grey" stroke-width="2" points="235.5,-331.73 226.27,-326.53 230.24,-336.35 235.5,-331.73"/>
</g>
<!-- 7 -->
<g id="node8" class="node">
<title>7</title>
<path fill="none" stroke="#d87556" stroke-width="2" stroke-dasharray="5,2" d="M369.88,-324C369.88,-324 329.88,-324 329.88,-324 323.88,-324 317.88,-318 317.88,-312 317.88,-312 317.88,-300 317.88,-300 317.88,-294 323.88,-288 329.88,-288 329.88,-288 369.88,-288 369.88,-288 375.88,-288 381.88,-294 381.88,-300 381.88,-300 381.88,-312 381.88,-312 381.88,-318 375.88,-324 369.88,-324"/>
<text text-anchor="middle" x="349.88" y="-302.12" font-family="sans" font-size="10.00">trim_galore</text>
</g>
<!-- 3&#45;&gt;7 -->
<g id="edge14" class="edge">
<title>3&#45;&gt;7</title>
<path fill="none" stroke="grey" stroke-width="2" d="M295.45,-359.19C303.83,-351.15 313.53,-341.85 322.4,-333.35"/>
<polygon fill="grey" stroke="grey" stroke-width="2" points="324.8,-335.98 329.59,-326.53 319.95,-330.93 324.8,-335.98"/>
</g>
<!-- 4&#45;&gt;1 -->
<g id="edge4" class="edge">
<title>4&#45;&gt;1</title>
<path fill="none" stroke="grey" stroke-width="2" d="M208.9,-287.08C208.81,-267.36 211.7,-235.82 228.88,-216 254.95,-185.92 299.64,-172.9 332.33,-167.27"/>
<polygon fill="grey" stroke="grey" stroke-width="2" points="333.72,-170.3 343.08,-165.34 332.67,-163.38 333.72,-170.3"/>
</g>
<!-- 5 -->
<g id="node6" class="node">
<title>5</title>
<path fill="none" stroke="#b6d856" stroke-width="2" stroke-dasharray="5,2" d="M151.75,-398.88C151.75,-398.88 12,-398.88 12,-398.88 6,-398.88 0,-392.88 0,-386.88 0,-386.88 0,-374.88 0,-374.88 0,-368.88 6,-362.88 12,-362.88 12,-362.88 151.75,-362.88 151.75,-362.88 157.75,-362.88 163.75,-368.88 163.75,-374.88 163.75,-374.88 163.75,-386.88 163.75,-386.88 163.75,-392.88 157.75,-398.88 151.75,-398.88"/>
<text text-anchor="middle" x="81.88" y="-377" font-family="sans" font-size="10.00">download_fastq_screen_genomes</text>
</g>
<!-- 5&#45;&gt;4 -->
<g id="edge9" class="edge">
<title>5&#45;&gt;4</title>
<path fill="none" stroke="grey" stroke-width="2" d="M113.19,-362.05C129.46,-352.78 149.58,-341.33 167.25,-331.27"/>
<polygon fill="grey" stroke="grey" stroke-width="2" points="169.48,-333.89 176.44,-325.9 166.02,-327.8 169.48,-333.89"/>
</g>
<!-- 6 -->
<g id="node7" class="node">
<title>6</title>
<path fill="none" stroke="#56d882" stroke-width="2" stroke-dasharray="5,2" d="M549.25,-252C549.25,-252 466.5,-252 466.5,-252 460.5,-252 454.5,-246 454.5,-240 454.5,-240 454.5,-228 454.5,-228 454.5,-222 460.5,-216 466.5,-216 466.5,-216 549.25,-216 549.25,-216 555.25,-216 561.25,-222 561.25,-228 561.25,-228 561.25,-240 561.25,-240 561.25,-246 555.25,-252 549.25,-252"/>
<text text-anchor="middle" x="507.88" y="-230.12" font-family="sans" font-size="10.00">star_reads_per_gene</text>
</g>
<!-- 6&#45;&gt;1 -->
<g id="edge5" class="edge">
<title>6&#45;&gt;1</title>
<path fill="none" stroke="grey" stroke-width="2" d="M473.46,-215.15C454.83,-205.49 431.73,-193.52 412.37,-183.48"/>
<polygon fill="grey" stroke="grey" stroke-width="2" points="413.36,-180.01 402.87,-178.51 410.13,-186.23 413.36,-180.01"/>
</g>
<!-- 7&#45;&gt;6 -->
<g id="edge11" class="edge">
<title>7&#45;&gt;6</title>
<path fill="none" stroke="grey" stroke-width="2" d="M382.61,-290.5C403.65,-281.18 431.43,-268.87 455.49,-258.21"/>
<polygon fill="grey" stroke="grey" stroke-width="2" points="457.59,-261.22 465.31,-253.97 454.75,-254.82 457.59,-261.22"/>
</g>
<!-- 11 -->
<g id="node12" class="node">
<title>11</title>
<path fill="none" stroke="#5673d8" stroke-width="2" d="M424,-252C424,-252 321.75,-252 321.75,-252 315.75,-252 309.75,-246 309.75,-240 309.75,-240 309.75,-228 309.75,-228 309.75,-222 315.75,-216 321.75,-216 321.75,-216 424,-216 424,-216 430,-216 436,-222 436,-228 436,-228 436,-240 436,-240 436,-246 430,-252 424,-252"/>
<text text-anchor="middle" x="372.88" y="-230.12" font-family="sans" font-size="10.00">star_reads_per_transcript</text>
</g>
<!-- 7&#45;&gt;11 -->
<g id="edge16" class="edge">
<title>7&#45;&gt;11</title>
<path fill="none" stroke="grey" stroke-width="2" d="M355.68,-287.34C357.9,-280.59 360.49,-272.69 362.98,-265.11"/>
<polygon fill="grey" stroke="grey" stroke-width="2" points="367.2,-265.49 366.99,-254.9 360.55,-263.31 367.2,-265.49"/>
</g>
<!-- 8 -->
<g id="node9" class="node">
<title>8</title>
<path fill="none" stroke="#97d856" stroke-width="2" stroke-dasharray="5,2" d="M521.88,-324C521.88,-324 491.88,-324 491.88,-324 485.88,-324 479.88,-318 479.88,-312 479.88,-312 479.88,-300 479.88,-300 479.88,-294 485.88,-288 491.88,-288 491.88,-288 521.88,-288 521.88,-288 527.88,-288 533.88,-294 533.88,-300 533.88,-300 533.88,-312 533.88,-312 533.88,-318 527.88,-324 521.88,-324"/>
<text text-anchor="middle" x="506.88" y="-302.12" font-family="sans" font-size="10.00">gffread</text>
</g>
<!-- 8&#45;&gt;6 -->
<g id="edge12" class="edge">
<title>8&#45;&gt;6</title>
<path fill="none" stroke="grey" stroke-width="2" d="M507.13,-287.34C507.22,-280.75 507.33,-273.08 507.44,-265.67"/>
<polygon fill="grey" stroke="grey" stroke-width="2" points="510.98,-265.95 507.62,-255.9 503.98,-265.85 510.98,-265.95"/>
</g>
<!-- 8&#45;&gt;11 -->
<g id="edge17" class="edge">
<title>8&#45;&gt;11</title>
<path fill="none" stroke="grey" stroke-width="2" d="M479.11,-290.5C461.68,-281.39 438.78,-269.43 418.7,-258.94"/>
<polygon fill="grey" stroke="grey" stroke-width="2" points="419.76,-255.5 409.27,-253.97 416.52,-261.7 419.76,-255.5"/>
</g>
<!-- 9 -->
<g id="node10" class="node">
<title>9</title>
<path fill="none" stroke="#56d863" stroke-width="2" stroke-dasharray="5,2" d="M449.38,-324C449.38,-324 412.38,-324 412.38,-324 406.38,-324 400.38,-318 400.38,-312 400.38,-312 400.38,-300 400.38,-300 400.38,-294 406.38,-288 412.38,-288 412.38,-288 449.38,-288 449.38,-288 455.38,-288 461.38,-294 461.38,-300 461.38,-300 461.38,-312 461.38,-312 461.38,-318 455.38,-324 449.38,-324"/>
<text text-anchor="middle" x="430.88" y="-302.12" font-family="sans" font-size="10.00">star_index</text>
</g>
<!-- 9&#45;&gt;6 -->
<g id="edge13" class="edge">
<title>9&#45;&gt;6</title>
<path fill="none" stroke="grey" stroke-width="2" d="M450.31,-287.34C458.9,-279.52 469.2,-270.16 478.69,-261.53"/>
<polygon fill="grey" stroke="grey" stroke-width="2" points="481.14,-264.22 486.18,-254.9 476.43,-259.04 481.14,-264.22"/>
</g>
<!-- 9&#45;&gt;11 -->
<g id="edge18" class="edge">
<title>9&#45;&gt;11</title>
<path fill="none" stroke="grey" stroke-width="2" d="M416.24,-287.34C410.1,-279.93 402.82,-271.14 395.99,-262.9"/>
<polygon fill="grey" stroke="grey" stroke-width="2" points="397.78,-260.37 388.71,-254.9 392.39,-264.84 397.78,-260.37"/>
</g>
<!-- 10 -->
<g id="node11" class="node">
<title>10</title>
<path fill="none" stroke="#80d856" stroke-width="2" stroke-dasharray="5,2" d="M466.25,-398.88C466.25,-398.88 395.5,-398.88 395.5,-398.88 389.5,-398.88 383.5,-392.88 383.5,-386.88 383.5,-386.88 383.5,-374.88 383.5,-374.88 383.5,-368.88 389.5,-362.88 395.5,-362.88 395.5,-362.88 466.25,-362.88 466.25,-362.88 472.25,-362.88 478.25,-368.88 478.25,-374.88 478.25,-374.88 478.25,-386.88 478.25,-386.88 478.25,-392.88 472.25,-398.88 466.25,-398.88"/>
<text text-anchor="middle" x="430.88" y="-377" font-family="sans" font-size="10.00">convert_gff_to_gtf</text>
</g>
<!-- 10&#45;&gt;9 -->
<g id="edge15" class="edge">
<title>10&#45;&gt;9</title>
<path fill="none" stroke="grey" stroke-width="2" d="M430.88,-362.23C430.88,-354.91 430.88,-346.2 430.88,-337.88"/>
<polygon fill="grey" stroke="grey" stroke-width="2" points="434.38,-337.98 430.88,-327.98 427.38,-337.98 434.38,-337.98"/>
</g>
<!-- 11&#45;&gt;1 -->
<g id="edge6" class="edge">
<title>11&#45;&gt;1</title>
<path fill="none" stroke="grey" stroke-width="2" d="M372.88,-215.34C372.88,-208.75 372.88,-201.08 372.88,-193.67"/>
<polygon fill="grey" stroke="grey" stroke-width="2" points="376.38,-193.9 372.88,-183.9 369.38,-193.9 376.38,-193.9"/>
</g>
<!-- 12 -->
<g id="node13" class="node">
<title>12</title>
<path fill="none" stroke="#56d8d0" stroke-width="2" stroke-dasharray="5,2" d="M642.88,-252C642.88,-252 608.88,-252 608.88,-252 602.88,-252 596.88,-246 596.88,-240 596.88,-240 596.88,-228 596.88,-228 596.88,-222 602.88,-216 608.88,-216 608.88,-216 642.88,-216 642.88,-216 648.88,-216 654.88,-222 654.88,-228 654.88,-228 654.88,-240 654.88,-240 654.88,-246 648.88,-252 642.88,-252"/>
<text text-anchor="middle" x="625.88" y="-230.12" font-family="sans" font-size="10.00">gunc_plot</text>
</g>
<!-- 12&#45;&gt;1 -->
<g id="edge7" class="edge">
<title>12&#45;&gt;1</title>
<path fill="none" stroke="grey" stroke-width="2" d="M595.99,-223.74C587.56,-221.17 578.37,-218.43 569.88,-216 515.76,-200.51 452.92,-183.83 413.03,-173.4"/>
<polygon fill="grey" stroke="grey" stroke-width="2" points="413.24,-169.32 402.68,-170.18 411.48,-176.09 413.24,-169.32"/>
</g>
<!-- 13 -->
<g id="node14" class="node">
<title>13</title>
<path fill="none" stroke="#568ad8" stroke-width="2" stroke-dasharray="5,2" d="M723.5,-324C723.5,-324 564.25,-324 564.25,-324 558.25,-324 552.25,-318 552.25,-312 552.25,-312 552.25,-300 552.25,-300 552.25,-294 558.25,-288 564.25,-288 564.25,-288 723.5,-288 723.5,-288 729.5,-288 735.5,-294 735.5,-300 735.5,-300 735.5,-312 735.5,-312 735.5,-318 729.5,-324 723.5,-324"/>
<text text-anchor="middle" x="643.88" y="-307.75" font-family="sans" font-size="10.00">gunc_run</text>
<text text-anchor="middle" x="643.88" y="-296.5" font-family="sans" font-size="10.00">project: Mycolicibacterium_smegmatis</text>
</g>
<!-- 13&#45;&gt;12 -->
<g id="edge19" class="edge">
<title>13&#45;&gt;12</title>
<path fill="none" stroke="grey" stroke-width="2" d="M639.33,-287.34C637.62,-280.67 635.62,-272.89 633.69,-265.39"/>
<polygon fill="grey" stroke="grey" stroke-width="2" points="636.36,-263.72 630.48,-254.9 629.58,-265.46 636.36,-263.72"/>
</g>
<!-- 14 -->
<g id="node15" class="node">
<title>14</title>
<path fill="none" stroke="#d85656" stroke-width="2" stroke-dasharray="5,2" d="M681.5,-398.88C681.5,-398.88 606.25,-398.88 606.25,-398.88 600.25,-398.88 594.25,-392.88 594.25,-386.88 594.25,-386.88 594.25,-374.88 594.25,-374.88 594.25,-368.88 600.25,-362.88 606.25,-362.88 606.25,-362.88 681.5,-362.88 681.5,-362.88 687.5,-362.88 693.5,-368.88 693.5,-374.88 693.5,-374.88 693.5,-386.88 693.5,-386.88 693.5,-392.88 687.5,-398.88 681.5,-398.88"/>
<text text-anchor="middle" x="643.88" y="-377" font-family="sans" font-size="10.00">download_gunc_db</text>
</g>
<!-- 14&#45;&gt;13 -->
<g id="edge20" class="edge">
<title>14&#45;&gt;13</title>
<path fill="none" stroke="grey" stroke-width="2" d="M643.88,-362.23C643.88,-354.91 643.88,-346.2 643.88,-337.88"/>
<polygon fill="grey" stroke="grey" stroke-width="2" points="647.38,-337.98 643.88,-327.98 640.38,-337.98 647.38,-337.98"/>
</g>
<!-- 15&#45;&gt;0 -->
<g id="edge2" class="edge">
<title>15&#45;&gt;0</title>
<path fill="none" stroke="grey" stroke-width="2" d="M398.3,-71.34C394.94,-64.43 391,-56.31 387.23,-48.56"/>
<polygon fill="grey" stroke="grey" stroke-width="2" points="390.09,-46.37 382.57,-38.9 383.79,-49.43 390.09,-46.37"/>
</g>
</g>
</svg>
