<?xml version="1.0" encoding="UTF-8" standalone="no"?>
<!DOCTYPE svg PUBLIC "-//W3C//DTD SVG 1.1//EN"
 "http://www.w3.org/Graphics/SVG/1.1/DTD/svg11.dtd">
<!-- Generated by graphviz version 8.0.5 (0)
 -->
<!-- Title: snakemake_dag Pages: 1 -->
<svg width="374pt" height="410pt"
 viewBox="0.00 0.00 373.50 409.75" xmlns="http://www.w3.org/2000/svg" xmlns:xlink="http://www.w3.org/1999/xlink">
<g id="graph0" class="graph" transform="scale(1 1) rotate(0) translate(4 405.75)">
<title>snakemake_dag</title>
<polygon fill="white" stroke="none" points="-4,4 -4,-405.75 369.5,-405.75 369.5,4 -4,4"/>
<!-- 0 -->
<g id="node1" class="node">
<title>0</title>
<path fill="none" stroke="#56a9d8" stroke-width="2" d="M146.62,-36C146.62,-36 116.62,-36 116.62,-36 110.62,-36 104.62,-30 104.62,-24 104.62,-24 104.62,-12 104.62,-12 104.62,-6 110.62,0 116.62,0 116.62,0 146.62,0 146.62,0 152.62,0 158.62,-6 158.62,-12 158.62,-12 158.62,-24 158.62,-24 158.62,-30 152.62,-36 146.62,-36"/>
<text text-anchor="middle" x="131.62" y="-14.12" font-family="sans" font-size="10.00">all</text>
</g>
<!-- 1 -->
<g id="node2" class="node">
<title>1</title>
<path fill="none" stroke="#56d892" stroke-width="2" d="M146.62,-108C146.62,-108 116.62,-108 116.62,-108 110.62,-108 104.62,-102 104.62,-96 104.62,-96 104.62,-84 104.62,-84 104.62,-78 110.62,-72 116.62,-72 116.62,-72 146.62,-72 146.62,-72 152.62,-72 158.62,-78 158.62,-84 158.62,-84 158.62,-96 158.62,-96 158.62,-102 152.62,-108 146.62,-108"/>
<text text-anchor="middle" x="131.62" y="-86.12" font-family="sans" font-size="10.00">deseq2</text>
</g>
<!-- 1&#45;&gt;0 -->
<g id="edge1" class="edge">
<title>1&#45;&gt;0</title>
<path fill="none" stroke="grey" stroke-width="2" d="M131.62,-71.34C131.62,-64.75 131.62,-57.08 131.62,-49.67"/>
<polygon fill="grey" stroke="grey" stroke-width="2" points="135.13,-49.9 131.62,-39.9 128.13,-49.9 135.13,-49.9"/>
</g>
<!-- 2 -->
<g id="node3" class="node">
<title>2</title>
<path fill="none" stroke="#567bd8" stroke-width="2" d="M159.12,-180C159.12,-180 104.12,-180 104.12,-180 98.12,-180 92.12,-174 92.12,-168 92.12,-168 92.12,-156 92.12,-156 92.12,-150 98.12,-144 104.12,-144 104.12,-144 159.12,-144 159.12,-144 165.12,-144 171.12,-150 171.12,-156 171.12,-156 171.12,-168 171.12,-168 171.12,-174 165.12,-180 159.12,-180"/>
<text text-anchor="middle" x="131.62" y="-158.12" font-family="sans" font-size="10.00">merge_kallisto</text>
</g>
<!-- 2&#45;&gt;1 -->
<g id="edge2" class="edge">
<title>2&#45;&gt;1</title>
<path fill="none" stroke="grey" stroke-width="2" d="M131.62,-143.34C131.62,-136.75 131.62,-129.08 131.62,-121.67"/>
<polygon fill="grey" stroke="grey" stroke-width="2" points="135.13,-121.9 131.62,-111.9 128.13,-121.9 135.13,-121.9"/>
</g>
<!-- 3 -->
<g id="node4" class="node">
<title>3</title>
<path fill="none" stroke="#b6d856" stroke-width="2" d="M146.62,-252C146.62,-252 116.62,-252 116.62,-252 110.62,-252 104.62,-246 104.62,-240 104.62,-240 104.62,-228 104.62,-228 104.62,-222 110.62,-216 116.62,-216 116.62,-216 146.62,-216 146.62,-216 152.62,-216 158.62,-222 158.62,-228 158.62,-228 158.62,-240 158.62,-240 158.62,-246 152.62,-252 146.62,-252"/>
<text text-anchor="middle" x="131.62" y="-230.12" font-family="sans" font-size="10.00">multiqc</text>
</g>
<!-- 3&#45;&gt;2 -->
<g id="edge3" class="edge">
<title>3&#45;&gt;2</title>
<path fill="none" stroke="grey" stroke-width="2" d="M131.62,-215.34C131.62,-208.75 131.62,-201.08 131.62,-193.67"/>
<polygon fill="grey" stroke="grey" stroke-width="2" points="135.13,-193.9 131.62,-183.9 128.13,-193.9 135.13,-193.9"/>
</g>
<!-- 4 -->
<g id="node5" class="node">
<title>4</title>
<path fill="none" stroke="#56d8b9" stroke-width="2" d="M106.62,-324C106.62,-324 76.62,-324 76.62,-324 70.62,-324 64.62,-318 64.62,-312 64.62,-312 64.62,-300 64.62,-300 64.62,-294 70.62,-288 76.62,-288 76.62,-288 106.62,-288 106.62,-288 112.62,-288 118.62,-294 118.62,-300 118.62,-300 118.62,-312 118.62,-312 118.62,-318 112.62,-324 106.62,-324"/>
<text text-anchor="middle" x="91.62" y="-302.12" font-family="sans" font-size="10.00">fastqc</text>
</g>
<!-- 4&#45;&gt;3 -->
<g id="edge4" class="edge">
<title>4&#45;&gt;3</title>
<path fill="none" stroke="grey" stroke-width="2" d="M101.72,-287.34C105.76,-280.26 110.53,-271.92 115.05,-264"/>
<polygon fill="grey" stroke="grey" stroke-width="2" points="118.47,-265.32 120.4,-254.9 112.4,-261.85 118.47,-265.32"/>
</g>
<!-- 5 -->
<g id="node6" class="node">
<title>5</title>
<path fill="none" stroke="#d8cb56" stroke-width="2" stroke-dasharray="5,2" d="M171.25,-401.75C171.25,-401.75 12,-401.75 12,-401.75 6,-401.75 0,-395.75 0,-389.75 0,-389.75 0,-372 0,-372 0,-366 6,-360 12,-360 12,-360 171.25,-360 171.25,-360 177.25,-360 183.25,-366 183.25,-372 183.25,-372 183.25,-389.75 183.25,-389.75 183.25,-395.75 177.25,-401.75 171.25,-401.75"/>
<text text-anchor="middle" x="91.62" y="-388.25" font-family="sans" font-size="10.00">symlink_files</text>
<text text-anchor="middle" x="91.62" y="-377" font-family="sans" font-size="10.00">project: Mycolicibacterium_smegmatis</text>
<text text-anchor="middle" x="91.62" y="-365.75" font-family="sans" font-size="10.00">subsample: test</text>
</g>
<!-- 5&#45;&gt;4 -->
<g id="edge6" class="edge">
<title>5&#45;&gt;4</title>
<path fill="none" stroke="grey" stroke-width="2" d="M91.62,-359.19C91.62,-352.43 91.62,-344.79 91.62,-337.47"/>
<polygon fill="grey" stroke="grey" stroke-width="2" points="95.13,-337.53 91.62,-327.53 88.13,-337.53 95.13,-337.53"/>
</g>
<!-- 6 -->
<g id="node7" class="node">
<title>6</title>
<path fill="none" stroke="#8fd856" stroke-width="2" d="M196.75,-324C196.75,-324 148.5,-324 148.5,-324 142.5,-324 136.5,-318 136.5,-312 136.5,-312 136.5,-300 136.5,-300 136.5,-294 142.5,-288 148.5,-288 148.5,-288 196.75,-288 196.75,-288 202.75,-288 208.75,-294 208.75,-300 208.75,-300 208.75,-312 208.75,-312 208.75,-318 202.75,-324 196.75,-324"/>
<text text-anchor="middle" x="172.62" y="-302.12" font-family="sans" font-size="10.00">fastq_screen</text>
</g>
<!-- 5&#45;&gt;6 -->
<g id="edge8" class="edge">
<title>5&#45;&gt;6</title>
<path fill="none" stroke="grey" stroke-width="2" d="M114.62,-359.19C123.58,-351.13 133.95,-341.8 143.42,-333.28"/>
<polygon fill="grey" stroke="grey" stroke-width="2" points="145.78,-336.06 150.87,-326.77 141.1,-330.86 145.78,-336.06"/>
</g>
<!-- 6&#45;&gt;3 -->
<g id="edge5" class="edge">
<title>6&#45;&gt;3</title>
<path fill="none" stroke="grey" stroke-width="2" d="M162.28,-287.34C158.13,-280.26 153.25,-271.92 148.61,-264"/>
<polygon fill="grey" stroke="grey" stroke-width="2" points="151.18,-261.76 143.11,-254.9 145.14,-265.3 151.18,-261.76"/>
</g>
<!-- 7 -->
<g id="node8" class="node">
<title>7</title>
<path fill="none" stroke="#d8a456" stroke-width="2" stroke-dasharray="5,2" d="M353.5,-398.88C353.5,-398.88 213.75,-398.88 213.75,-398.88 207.75,-398.88 201.75,-392.88 201.75,-386.88 201.75,-386.88 201.75,-374.88 201.75,-374.88 201.75,-368.88 207.75,-362.88 213.75,-362.88 213.75,-362.88 353.5,-362.88 353.5,-362.88 359.5,-362.88 365.5,-368.88 365.5,-374.88 365.5,-374.88 365.5,-386.88 365.5,-386.88 365.5,-392.88 359.5,-398.88 353.5,-398.88"/>
<text text-anchor="middle" x="283.62" y="-377" font-family="sans" font-size="10.00">download_fastq_screen_genomes</text>
</g>
<!-- 7&#45;&gt;6 -->
<g id="edge7" class="edge">
<title>7&#45;&gt;6</title>
<path fill="none" stroke="grey" stroke-width="2" d="M256.47,-362.05C242.63,-352.96 225.57,-341.76 210.47,-331.84"/>
<polygon fill="grey" stroke="grey" stroke-width="2" points="212.16,-328.46 201.88,-325.9 208.32,-334.31 212.16,-328.46"/>
</g>
</g>
</svg>
