<?xml version="1.0" encoding="UTF-8" standalone="no"?>
<!DOCTYPE svg PUBLIC "-//W3C//DTD SVG 1.1//EN"
 "http://www.w3.org/Graphics/SVG/1.1/DTD/svg11.dtd">
<!-- Generated by graphviz version 2.50.0 (0)
 -->
<!-- Title: snakemake_dag Pages: 1 -->
<svg width="3389pt" height="265pt"
 viewBox="0.00 0.00 3389.00 265.00" xmlns="http://www.w3.org/2000/svg" xmlns:xlink="http://www.w3.org/1999/xlink">
<g id="graph0" class="graph" transform="scale(1 1) rotate(0) translate(4 261)">
<title>snakemake_dag</title>
<polygon fill="white" stroke="transparent" points="-4,4 -4,-261 3385,-261 3385,4 -4,4"/>
<!-- 0 -->
<g id="node1" class="node">
<title>0</title>
<path fill="none" stroke="#d85656" stroke-width="2" d="M1879,-36C1879,-36 1849,-36 1849,-36 1843,-36 1837,-30 1837,-24 1837,-24 1837,-12 1837,-12 1837,-6 1843,0 1849,0 1849,0 1879,0 1879,0 1885,0 1891,-6 1891,-12 1891,-12 1891,-24 1891,-24 1891,-30 1885,-36 1879,-36"/>
<text text-anchor="middle" x="1864" y="-15.5" font-family="sans" font-size="10.00">all</text>
</g>
<!-- 1 -->
<g id="node2" class="node">
<title>1</title>
<path fill="none" stroke="#d8b456" stroke-width="2" stroke-dasharray="5,2" d="M1830,-108C1830,-108 1800,-108 1800,-108 1794,-108 1788,-102 1788,-96 1788,-96 1788,-84 1788,-84 1788,-78 1794,-72 1800,-72 1800,-72 1830,-72 1830,-72 1836,-72 1842,-78 1842,-84 1842,-84 1842,-96 1842,-96 1842,-102 1836,-108 1830,-108"/>
<text text-anchor="middle" x="1815" y="-87.5" font-family="sans" font-size="10.00">multiqc</text>
</g>
<!-- 1&#45;&gt;0 -->
<g id="edge1" class="edge">
<title>1&#45;&gt;0</title>
<path fill="none" stroke="grey" stroke-width="2" d="M1827.11,-71.7C1832.87,-63.47 1839.86,-53.48 1846.21,-44.42"/>
<polygon fill="grey" stroke="grey" stroke-width="2" points="1849.16,-46.3 1852.03,-36.1 1843.42,-42.29 1849.16,-46.3"/>
</g>
<!-- 2 -->
<g id="node3" class="node">
<title>2</title>
<path fill="none" stroke="#56d89a" stroke-width="2" stroke-dasharray="5,2" d="M180,-185C180,-185 12,-185 12,-185 6,-185 0,-179 0,-173 0,-173 0,-156 0,-156 0,-150 6,-144 12,-144 12,-144 180,-144 180,-144 186,-144 192,-150 192,-156 192,-156 192,-173 192,-173 192,-179 186,-185 180,-185"/>
<text text-anchor="middle" x="96" y="-173" font-family="sans" font-size="10.00">fastqc</text>
<text text-anchor="middle" x="96" y="-162" font-family="sans" font-size="10.00">project: r_peoriensis</text>
<text text-anchor="middle" x="96" y="-151" font-family="sans" font-size="10.00">subsample: PBradley002_A_R213_S11</text>
</g>
<!-- 2&#45;&gt;1 -->
<g id="edge3" class="edge">
<title>2&#45;&gt;1</title>
<path fill="none" stroke="grey" stroke-width="2" d="M192.04,-145.06C195.06,-144.68 198.05,-144.32 201,-144 521.19,-109.21 1566.68,-94.18 1777.68,-91.46"/>
<polygon fill="grey" stroke="grey" stroke-width="2" points="1777.97,-94.96 1787.92,-91.33 1777.88,-87.96 1777.97,-94.96"/>
</g>
<!-- 3 -->
<g id="node4" class="node">
<title>3</title>
<path fill="none" stroke="#5682d8" stroke-width="2" stroke-dasharray="5,2" d="M390,-185C390,-185 222,-185 222,-185 216,-185 210,-179 210,-173 210,-173 210,-156 210,-156 210,-150 216,-144 222,-144 222,-144 390,-144 390,-144 396,-144 402,-150 402,-156 402,-156 402,-173 402,-173 402,-179 396,-185 390,-185"/>
<text text-anchor="middle" x="306" y="-173" font-family="sans" font-size="10.00">fastq_screen</text>
<text text-anchor="middle" x="306" y="-162" font-family="sans" font-size="10.00">project: r_peoriensis</text>
<text text-anchor="middle" x="306" y="-151" font-family="sans" font-size="10.00">subsample: PBradley002_A_R213_S11</text>
</g>
<!-- 3&#45;&gt;1 -->
<g id="edge4" class="edge">
<title>3&#45;&gt;1</title>
<path fill="none" stroke="grey" stroke-width="2" d="M402.05,-145.08C405.06,-144.69 408.05,-144.33 411,-144 687.15,-113.31 1583.69,-95.27 1777.74,-91.67"/>
<polygon fill="grey" stroke="grey" stroke-width="2" points="1778.05,-95.16 1787.98,-91.48 1777.92,-88.17 1778.05,-95.16"/>
</g>
<!-- 4 -->
<g id="node5" class="node">
<title>4</title>
<path fill="none" stroke="#9fd856" stroke-width="2" stroke-dasharray="5,2" d="M909.5,-257C909.5,-257 764.5,-257 764.5,-257 758.5,-257 752.5,-251 752.5,-245 752.5,-245 752.5,-233 752.5,-233 752.5,-227 758.5,-221 764.5,-221 764.5,-221 909.5,-221 909.5,-221 915.5,-221 921.5,-227 921.5,-233 921.5,-233 921.5,-245 921.5,-245 921.5,-251 915.5,-257 909.5,-257"/>
<text text-anchor="middle" x="837" y="-236.5" font-family="sans" font-size="10.00">download_fastq_screen_genomes</text>
</g>
<!-- 4&#45;&gt;3 -->
<g id="edge21" class="edge">
<title>4&#45;&gt;3</title>
<path fill="none" stroke="grey" stroke-width="2" d="M752.33,-228.98C668.48,-219.7 536.22,-204.13 412.15,-185.13"/>
<polygon fill="grey" stroke="grey" stroke-width="2" points="412.51,-181.65 402.09,-183.58 411.44,-188.57 412.51,-181.65"/>
</g>
<!-- 8 -->
<g id="node9" class="node">
<title>8</title>
<path fill="none" stroke="#5682d8" stroke-width="2" stroke-dasharray="5,2" d="M601.5,-185C601.5,-185 432.5,-185 432.5,-185 426.5,-185 420.5,-179 420.5,-173 420.5,-173 420.5,-156 420.5,-156 420.5,-150 426.5,-144 432.5,-144 432.5,-144 601.5,-144 601.5,-144 607.5,-144 613.5,-150 613.5,-156 613.5,-156 613.5,-173 613.5,-173 613.5,-179 607.5,-185 601.5,-185"/>
<text text-anchor="middle" x="517" y="-173" font-family="sans" font-size="10.00">fastq_screen</text>
<text text-anchor="middle" x="517" y="-162" font-family="sans" font-size="10.00">project: r_peoriensis</text>
<text text-anchor="middle" x="517" y="-151" font-family="sans" font-size="10.00">subsample: PBradley002_B_R213_S12</text>
</g>
<!-- 4&#45;&gt;8 -->
<g id="edge23" class="edge">
<title>4&#45;&gt;8</title>
<path fill="none" stroke="grey" stroke-width="2" d="M761.57,-220.91C717.24,-210.87 660.74,-198.07 613.23,-187.3"/>
<polygon fill="grey" stroke="grey" stroke-width="2" points="613.76,-183.83 603.23,-185.04 612.21,-190.66 613.76,-183.83"/>
</g>
<!-- 12 -->
<g id="node13" class="node">
<title>12</title>
<path fill="none" stroke="#5682d8" stroke-width="2" stroke-dasharray="5,2" d="M812.5,-185C812.5,-185 643.5,-185 643.5,-185 637.5,-185 631.5,-179 631.5,-173 631.5,-173 631.5,-156 631.5,-156 631.5,-150 637.5,-144 643.5,-144 643.5,-144 812.5,-144 812.5,-144 818.5,-144 824.5,-150 824.5,-156 824.5,-156 824.5,-173 824.5,-173 824.5,-179 818.5,-185 812.5,-185"/>
<text text-anchor="middle" x="728" y="-173" font-family="sans" font-size="10.00">fastq_screen</text>
<text text-anchor="middle" x="728" y="-162" font-family="sans" font-size="10.00">project: r_peoriensis</text>
<text text-anchor="middle" x="728" y="-151" font-family="sans" font-size="10.00">subsample: PBradley002_C_R213_S13</text>
</g>
<!-- 4&#45;&gt;12 -->
<g id="edge25" class="edge">
<title>4&#45;&gt;12</title>
<path fill="none" stroke="grey" stroke-width="2" d="M811.17,-220.82C797.7,-211.86 780.96,-200.72 766.03,-190.8"/>
<polygon fill="grey" stroke="grey" stroke-width="2" points="767.76,-187.74 757.5,-185.12 763.88,-193.57 767.76,-187.74"/>
</g>
<!-- 16 -->
<g id="node17" class="node">
<title>16</title>
<path fill="none" stroke="#5682d8" stroke-width="2" stroke-dasharray="5,2" d="M1035,-185C1035,-185 855,-185 855,-185 849,-185 843,-179 843,-173 843,-173 843,-156 843,-156 843,-150 849,-144 855,-144 855,-144 1035,-144 1035,-144 1041,-144 1047,-150 1047,-156 1047,-156 1047,-173 1047,-173 1047,-179 1041,-185 1035,-185"/>
<text text-anchor="middle" x="945" y="-173" font-family="sans" font-size="10.00">fastq_screen</text>
<text text-anchor="middle" x="945" y="-162" font-family="sans" font-size="10.00">project: r_peoriensis</text>
<text text-anchor="middle" x="945" y="-151" font-family="sans" font-size="10.00">subsample: PBradley002_Rp1_R213_S14</text>
</g>
<!-- 4&#45;&gt;16 -->
<g id="edge27" class="edge">
<title>4&#45;&gt;16</title>
<path fill="none" stroke="grey" stroke-width="2" d="M862.59,-220.82C875.94,-211.86 892.53,-200.72 907.31,-190.8"/>
<polygon fill="grey" stroke="grey" stroke-width="2" points="909.42,-193.6 915.77,-185.12 905.52,-187.79 909.42,-193.6"/>
</g>
<!-- 20 -->
<g id="node21" class="node">
<title>20</title>
<path fill="none" stroke="#5682d8" stroke-width="2" stroke-dasharray="5,2" d="M1257,-185C1257,-185 1077,-185 1077,-185 1071,-185 1065,-179 1065,-173 1065,-173 1065,-156 1065,-156 1065,-150 1071,-144 1077,-144 1077,-144 1257,-144 1257,-144 1263,-144 1269,-150 1269,-156 1269,-156 1269,-173 1269,-173 1269,-179 1263,-185 1257,-185"/>
<text text-anchor="middle" x="1167" y="-173" font-family="sans" font-size="10.00">fastq_screen</text>
<text text-anchor="middle" x="1167" y="-162" font-family="sans" font-size="10.00">project: r_peoriensis</text>
<text text-anchor="middle" x="1167" y="-151" font-family="sans" font-size="10.00">subsample: PBradley002_Rp2_R213_S15</text>
</g>
<!-- 4&#45;&gt;20 -->
<g id="edge29" class="edge">
<title>4&#45;&gt;20</title>
<path fill="none" stroke="grey" stroke-width="2" d="M914.79,-220.91C960.6,-210.84 1019.01,-198.01 1068.07,-187.23"/>
<polygon fill="grey" stroke="grey" stroke-width="2" points="1069.06,-190.6 1078.08,-185.04 1067.56,-183.76 1069.06,-190.6"/>
</g>
<!-- 24 -->
<g id="node25" class="node">
<title>24</title>
<path fill="none" stroke="#5682d8" stroke-width="2" stroke-dasharray="5,2" d="M1479,-185C1479,-185 1299,-185 1299,-185 1293,-185 1287,-179 1287,-173 1287,-173 1287,-156 1287,-156 1287,-150 1293,-144 1299,-144 1299,-144 1479,-144 1479,-144 1485,-144 1491,-150 1491,-156 1491,-156 1491,-173 1491,-173 1491,-179 1485,-185 1479,-185"/>
<text text-anchor="middle" x="1389" y="-173" font-family="sans" font-size="10.00">fastq_screen</text>
<text text-anchor="middle" x="1389" y="-162" font-family="sans" font-size="10.00">project: r_peoriensis</text>
<text text-anchor="middle" x="1389" y="-151" font-family="sans" font-size="10.00">subsample: PBradley002_Rp3_R213_S16</text>
</g>
<!-- 4&#45;&gt;24 -->
<g id="edge31" class="edge">
<title>4&#45;&gt;24</title>
<path fill="none" stroke="grey" stroke-width="2" d="M921.72,-229.2C1008.39,-219.88 1147.15,-204.09 1276.71,-185.15"/>
<polygon fill="grey" stroke="grey" stroke-width="2" points="1277.43,-188.58 1286.82,-183.67 1276.41,-181.66 1277.43,-188.58"/>
</g>
<!-- 5 -->
<g id="node6" class="node">
<title>5</title>
<path fill="none" stroke="#56d8c9" stroke-width="2" stroke-dasharray="5,2" d="M1604.5,-182.5C1604.5,-182.5 1521.5,-182.5 1521.5,-182.5 1515.5,-182.5 1509.5,-176.5 1509.5,-170.5 1509.5,-170.5 1509.5,-158.5 1509.5,-158.5 1509.5,-152.5 1515.5,-146.5 1521.5,-146.5 1521.5,-146.5 1604.5,-146.5 1604.5,-146.5 1610.5,-146.5 1616.5,-152.5 1616.5,-158.5 1616.5,-158.5 1616.5,-170.5 1616.5,-170.5 1616.5,-176.5 1610.5,-182.5 1604.5,-182.5"/>
<text text-anchor="middle" x="1563" y="-167.5" font-family="sans" font-size="10.00">kallisto</text>
<text text-anchor="middle" x="1563" y="-156.5" font-family="sans" font-size="10.00">project: r_peoriensis</text>
</g>
<!-- 5&#45;&gt;1 -->
<g id="edge5" class="edge">
<title>5&#45;&gt;1</title>
<path fill="none" stroke="grey" stroke-width="2" d="M1616.74,-146.48C1619.53,-145.63 1622.3,-144.8 1625,-144 1678.04,-128.27 1739.81,-111.28 1778.16,-100.89"/>
<polygon fill="grey" stroke="grey" stroke-width="2" points="1779.12,-104.26 1787.86,-98.27 1777.29,-97.5 1779.12,-104.26"/>
</g>
<!-- 6 -->
<g id="node7" class="node">
<title>6</title>
<path fill="none" stroke="#70d856" stroke-width="2" stroke-dasharray="5,2" d="M1647,-257C1647,-257 1479,-257 1479,-257 1473,-257 1467,-251 1467,-245 1467,-245 1467,-233 1467,-233 1467,-227 1473,-221 1479,-221 1479,-221 1647,-221 1647,-221 1653,-221 1659,-227 1659,-233 1659,-233 1659,-245 1659,-245 1659,-251 1653,-257 1647,-257"/>
<text text-anchor="middle" x="1563" y="-242" font-family="sans" font-size="10.00">trim_galore</text>
<text text-anchor="middle" x="1563" y="-231" font-family="sans" font-size="10.00">subsample: PBradley002_A_R213_S11</text>
</g>
<!-- 6&#45;&gt;5 -->
<g id="edge22" class="edge">
<title>6&#45;&gt;5</title>
<path fill="none" stroke="grey" stroke-width="2" d="M1563,-220.82C1563,-212.42 1563,-202.12 1563,-192.69"/>
<polygon fill="grey" stroke="grey" stroke-width="2" points="1566.5,-192.56 1563,-182.56 1559.5,-192.56 1566.5,-192.56"/>
</g>
<!-- 7 -->
<g id="node8" class="node">
<title>7</title>
<path fill="none" stroke="#56d89a" stroke-width="2" stroke-dasharray="5,2" d="M1815.5,-185C1815.5,-185 1646.5,-185 1646.5,-185 1640.5,-185 1634.5,-179 1634.5,-173 1634.5,-173 1634.5,-156 1634.5,-156 1634.5,-150 1640.5,-144 1646.5,-144 1646.5,-144 1815.5,-144 1815.5,-144 1821.5,-144 1827.5,-150 1827.5,-156 1827.5,-156 1827.5,-173 1827.5,-173 1827.5,-179 1821.5,-185 1815.5,-185"/>
<text text-anchor="middle" x="1731" y="-173" font-family="sans" font-size="10.00">fastqc</text>
<text text-anchor="middle" x="1731" y="-162" font-family="sans" font-size="10.00">project: r_peoriensis</text>
<text text-anchor="middle" x="1731" y="-151" font-family="sans" font-size="10.00">subsample: PBradley002_B_R213_S12</text>
</g>
<!-- 7&#45;&gt;1 -->
<g id="edge6" class="edge">
<title>7&#45;&gt;1</title>
<path fill="none" stroke="grey" stroke-width="2" d="M1753.95,-143.69C1764.35,-134.72 1776.72,-124.04 1787.6,-114.65"/>
<polygon fill="grey" stroke="grey" stroke-width="2" points="1789.93,-117.26 1795.21,-108.08 1785.36,-111.96 1789.93,-117.26"/>
</g>
<!-- 8&#45;&gt;1 -->
<g id="edge7" class="edge">
<title>8&#45;&gt;1</title>
<path fill="none" stroke="grey" stroke-width="2" d="M613.61,-145.03C616.44,-144.66 619.24,-144.32 622,-144 1074.63,-92.17 1629.25,-90.27 1777.24,-90.77"/>
<polygon fill="grey" stroke="grey" stroke-width="2" points="1777.57,-94.27 1787.58,-90.81 1777.59,-87.27 1777.57,-94.27"/>
</g>
<!-- 9 -->
<g id="node10" class="node">
<title>9</title>
<path fill="none" stroke="#56d8c9" stroke-width="2" stroke-dasharray="5,2" d="M1940.5,-182.5C1940.5,-182.5 1857.5,-182.5 1857.5,-182.5 1851.5,-182.5 1845.5,-176.5 1845.5,-170.5 1845.5,-170.5 1845.5,-158.5 1845.5,-158.5 1845.5,-152.5 1851.5,-146.5 1857.5,-146.5 1857.5,-146.5 1940.5,-146.5 1940.5,-146.5 1946.5,-146.5 1952.5,-152.5 1952.5,-158.5 1952.5,-158.5 1952.5,-170.5 1952.5,-170.5 1952.5,-176.5 1946.5,-182.5 1940.5,-182.5"/>
<text text-anchor="middle" x="1899" y="-167.5" font-family="sans" font-size="10.00">kallisto</text>
<text text-anchor="middle" x="1899" y="-156.5" font-family="sans" font-size="10.00">project: r_peoriensis</text>
</g>
<!-- 9&#45;&gt;1 -->
<g id="edge8" class="edge">
<title>9&#45;&gt;1</title>
<path fill="none" stroke="grey" stroke-width="2" d="M1879.09,-146.32C1868.21,-136.93 1854.57,-125.15 1842.67,-114.88"/>
<polygon fill="grey" stroke="grey" stroke-width="2" points="1844.62,-111.94 1834.76,-108.06 1840.05,-117.24 1844.62,-111.94"/>
</g>
<!-- 10 -->
<g id="node11" class="node">
<title>10</title>
<path fill="none" stroke="#70d856" stroke-width="2" stroke-dasharray="5,2" d="M1983.5,-257C1983.5,-257 1814.5,-257 1814.5,-257 1808.5,-257 1802.5,-251 1802.5,-245 1802.5,-245 1802.5,-233 1802.5,-233 1802.5,-227 1808.5,-221 1814.5,-221 1814.5,-221 1983.5,-221 1983.5,-221 1989.5,-221 1995.5,-227 1995.5,-233 1995.5,-233 1995.5,-245 1995.5,-245 1995.5,-251 1989.5,-257 1983.5,-257"/>
<text text-anchor="middle" x="1899" y="-242" font-family="sans" font-size="10.00">trim_galore</text>
<text text-anchor="middle" x="1899" y="-231" font-family="sans" font-size="10.00">subsample: PBradley002_B_R213_S12</text>
</g>
<!-- 10&#45;&gt;9 -->
<g id="edge24" class="edge">
<title>10&#45;&gt;9</title>
<path fill="none" stroke="grey" stroke-width="2" d="M1899,-220.82C1899,-212.42 1899,-202.12 1899,-192.69"/>
<polygon fill="grey" stroke="grey" stroke-width="2" points="1902.5,-192.56 1899,-182.56 1895.5,-192.56 1902.5,-192.56"/>
</g>
<!-- 11 -->
<g id="node12" class="node">
<title>11</title>
<path fill="none" stroke="#56d89a" stroke-width="2" stroke-dasharray="5,2" d="M2151.5,-185C2151.5,-185 1982.5,-185 1982.5,-185 1976.5,-185 1970.5,-179 1970.5,-173 1970.5,-173 1970.5,-156 1970.5,-156 1970.5,-150 1976.5,-144 1982.5,-144 1982.5,-144 2151.5,-144 2151.5,-144 2157.5,-144 2163.5,-150 2163.5,-156 2163.5,-156 2163.5,-173 2163.5,-173 2163.5,-179 2157.5,-185 2151.5,-185"/>
<text text-anchor="middle" x="2067" y="-173" font-family="sans" font-size="10.00">fastqc</text>
<text text-anchor="middle" x="2067" y="-162" font-family="sans" font-size="10.00">project: r_peoriensis</text>
<text text-anchor="middle" x="2067" y="-151" font-family="sans" font-size="10.00">subsample: PBradley002_C_R213_S13</text>
</g>
<!-- 11&#45;&gt;1 -->
<g id="edge9" class="edge">
<title>11&#45;&gt;1</title>
<path fill="none" stroke="grey" stroke-width="2" d="M1975.19,-143.98C1938.95,-135.3 1896.97,-124.04 1851.94,-108.03"/>
<polygon fill="grey" stroke="grey" stroke-width="2" points="1852.88,-104.65 1842.29,-104.54 1850.5,-111.23 1852.88,-104.65"/>
</g>
<!-- 12&#45;&gt;1 -->
<g id="edge10" class="edge">
<title>12&#45;&gt;1</title>
<path fill="none" stroke="grey" stroke-width="2" d="M824.69,-145.19C827.82,-144.76 830.93,-144.36 834,-144 1200.14,-100.61 1647.43,-92.71 1777.74,-91.3"/>
<polygon fill="grey" stroke="grey" stroke-width="2" points="1778.01,-94.8 1787.97,-91.19 1777.94,-87.8 1778.01,-94.8"/>
</g>
<!-- 13 -->
<g id="node14" class="node">
<title>13</title>
<path fill="none" stroke="#56d8c9" stroke-width="2" stroke-dasharray="5,2" d="M2276.5,-182.5C2276.5,-182.5 2193.5,-182.5 2193.5,-182.5 2187.5,-182.5 2181.5,-176.5 2181.5,-170.5 2181.5,-170.5 2181.5,-158.5 2181.5,-158.5 2181.5,-152.5 2187.5,-146.5 2193.5,-146.5 2193.5,-146.5 2276.5,-146.5 2276.5,-146.5 2282.5,-146.5 2288.5,-152.5 2288.5,-158.5 2288.5,-158.5 2288.5,-170.5 2288.5,-170.5 2288.5,-176.5 2282.5,-182.5 2276.5,-182.5"/>
<text text-anchor="middle" x="2235" y="-167.5" font-family="sans" font-size="10.00">kallisto</text>
<text text-anchor="middle" x="2235" y="-156.5" font-family="sans" font-size="10.00">project: r_peoriensis</text>
</g>
<!-- 13&#45;&gt;1 -->
<g id="edge11" class="edge">
<title>13&#45;&gt;1</title>
<path fill="none" stroke="grey" stroke-width="2" d="M2182.6,-146.47C2179.03,-145.56 2175.47,-144.73 2172,-144 2034.63,-115.3 1991.06,-145.75 1851.9,-107.69"/>
<polygon fill="grey" stroke="grey" stroke-width="2" points="1852.73,-104.29 1842.16,-104.96 1850.84,-111.03 1852.73,-104.29"/>
</g>
<!-- 14 -->
<g id="node15" class="node">
<title>14</title>
<path fill="none" stroke="#70d856" stroke-width="2" stroke-dasharray="5,2" d="M2319.5,-257C2319.5,-257 2150.5,-257 2150.5,-257 2144.5,-257 2138.5,-251 2138.5,-245 2138.5,-245 2138.5,-233 2138.5,-233 2138.5,-227 2144.5,-221 2150.5,-221 2150.5,-221 2319.5,-221 2319.5,-221 2325.5,-221 2331.5,-227 2331.5,-233 2331.5,-233 2331.5,-245 2331.5,-245 2331.5,-251 2325.5,-257 2319.5,-257"/>
<text text-anchor="middle" x="2235" y="-242" font-family="sans" font-size="10.00">trim_galore</text>
<text text-anchor="middle" x="2235" y="-231" font-family="sans" font-size="10.00">subsample: PBradley002_C_R213_S13</text>
</g>
<!-- 14&#45;&gt;13 -->
<g id="edge26" class="edge">
<title>14&#45;&gt;13</title>
<path fill="none" stroke="grey" stroke-width="2" d="M2235,-220.82C2235,-212.42 2235,-202.12 2235,-192.69"/>
<polygon fill="grey" stroke="grey" stroke-width="2" points="2238.5,-192.56 2235,-182.56 2231.5,-192.56 2238.5,-192.56"/>
</g>
<!-- 15 -->
<g id="node16" class="node">
<title>15</title>
<path fill="none" stroke="#56d89a" stroke-width="2" stroke-dasharray="5,2" d="M2499,-185C2499,-185 2319,-185 2319,-185 2313,-185 2307,-179 2307,-173 2307,-173 2307,-156 2307,-156 2307,-150 2313,-144 2319,-144 2319,-144 2499,-144 2499,-144 2505,-144 2511,-150 2511,-156 2511,-156 2511,-173 2511,-173 2511,-179 2505,-185 2499,-185"/>
<text text-anchor="middle" x="2409" y="-173" font-family="sans" font-size="10.00">fastqc</text>
<text text-anchor="middle" x="2409" y="-162" font-family="sans" font-size="10.00">project: r_peoriensis</text>
<text text-anchor="middle" x="2409" y="-151" font-family="sans" font-size="10.00">subsample: PBradley002_Rp1_R213_S14</text>
</g>
<!-- 15&#45;&gt;1 -->
<g id="edge12" class="edge">
<title>15&#45;&gt;1</title>
<path fill="none" stroke="grey" stroke-width="2" d="M2306.82,-145.31C2303.51,-144.85 2300.23,-144.41 2297,-144 2103,-119.33 2045.06,-157.97 1852.02,-107.68"/>
<polygon fill="grey" stroke="grey" stroke-width="2" points="1852.69,-104.23 1842.13,-105.05 1850.9,-111 1852.69,-104.23"/>
</g>
<!-- 16&#45;&gt;1 -->
<g id="edge13" class="edge">
<title>16&#45;&gt;1</title>
<path fill="none" stroke="grey" stroke-width="2" d="M1047.16,-145.14C1050.13,-144.74 1053.09,-144.36 1056,-144 1331.66,-110.25 1666.48,-96.19 1777.35,-92.24"/>
<polygon fill="grey" stroke="grey" stroke-width="2" points="1777.8,-95.73 1787.67,-91.88 1777.56,-88.73 1777.8,-95.73"/>
</g>
<!-- 17 -->
<g id="node18" class="node">
<title>17</title>
<path fill="none" stroke="#56d8c9" stroke-width="2" stroke-dasharray="5,2" d="M2624.5,-182.5C2624.5,-182.5 2541.5,-182.5 2541.5,-182.5 2535.5,-182.5 2529.5,-176.5 2529.5,-170.5 2529.5,-170.5 2529.5,-158.5 2529.5,-158.5 2529.5,-152.5 2535.5,-146.5 2541.5,-146.5 2541.5,-146.5 2624.5,-146.5 2624.5,-146.5 2630.5,-146.5 2636.5,-152.5 2636.5,-158.5 2636.5,-158.5 2636.5,-170.5 2636.5,-170.5 2636.5,-176.5 2630.5,-182.5 2624.5,-182.5"/>
<text text-anchor="middle" x="2583" y="-167.5" font-family="sans" font-size="10.00">kallisto</text>
<text text-anchor="middle" x="2583" y="-156.5" font-family="sans" font-size="10.00">project: r_peoriensis</text>
</g>
<!-- 17&#45;&gt;1 -->
<g id="edge14" class="edge">
<title>17&#45;&gt;1</title>
<path fill="none" stroke="grey" stroke-width="2" d="M2531.68,-146.49C2527.76,-145.53 2523.83,-144.69 2520,-144 2230.18,-92.17 2141.68,-178.95 1852.06,-107.63"/>
<polygon fill="grey" stroke="grey" stroke-width="2" points="1852.66,-104.17 1842.11,-105.13 1850.96,-110.96 1852.66,-104.17"/>
</g>
<!-- 18 -->
<g id="node19" class="node">
<title>18</title>
<path fill="none" stroke="#70d856" stroke-width="2" stroke-dasharray="5,2" d="M2673,-257C2673,-257 2493,-257 2493,-257 2487,-257 2481,-251 2481,-245 2481,-245 2481,-233 2481,-233 2481,-227 2487,-221 2493,-221 2493,-221 2673,-221 2673,-221 2679,-221 2685,-227 2685,-233 2685,-233 2685,-245 2685,-245 2685,-251 2679,-257 2673,-257"/>
<text text-anchor="middle" x="2583" y="-242" font-family="sans" font-size="10.00">trim_galore</text>
<text text-anchor="middle" x="2583" y="-231" font-family="sans" font-size="10.00">subsample: PBradley002_Rp1_R213_S14</text>
</g>
<!-- 18&#45;&gt;17 -->
<g id="edge28" class="edge">
<title>18&#45;&gt;17</title>
<path fill="none" stroke="grey" stroke-width="2" d="M2583,-220.82C2583,-212.42 2583,-202.12 2583,-192.69"/>
<polygon fill="grey" stroke="grey" stroke-width="2" points="2586.5,-192.56 2583,-182.56 2579.5,-192.56 2586.5,-192.56"/>
</g>
<!-- 19 -->
<g id="node20" class="node">
<title>19</title>
<path fill="none" stroke="#56d89a" stroke-width="2" stroke-dasharray="5,2" d="M2847,-185C2847,-185 2667,-185 2667,-185 2661,-185 2655,-179 2655,-173 2655,-173 2655,-156 2655,-156 2655,-150 2661,-144 2667,-144 2667,-144 2847,-144 2847,-144 2853,-144 2859,-150 2859,-156 2859,-156 2859,-173 2859,-173 2859,-179 2853,-185 2847,-185"/>
<text text-anchor="middle" x="2757" y="-173" font-family="sans" font-size="10.00">fastqc</text>
<text text-anchor="middle" x="2757" y="-162" font-family="sans" font-size="10.00">project: r_peoriensis</text>
<text text-anchor="middle" x="2757" y="-151" font-family="sans" font-size="10.00">subsample: PBradley002_Rp2_R213_S15</text>
</g>
<!-- 19&#45;&gt;1 -->
<g id="edge15" class="edge">
<title>19&#45;&gt;1</title>
<path fill="none" stroke="grey" stroke-width="2" d="M2654.84,-145.16C2651.52,-144.74 2648.24,-144.35 2645,-144 2472.51,-125.15 2038.06,-149.65 1851.86,-107.49"/>
<polygon fill="grey" stroke="grey" stroke-width="2" points="1852.64,-104.08 1842.1,-105.16 1851.02,-110.89 1852.64,-104.08"/>
</g>
<!-- 20&#45;&gt;1 -->
<g id="edge16" class="edge">
<title>20&#45;&gt;1</title>
<path fill="none" stroke="grey" stroke-width="2" d="M1269.17,-145.25C1272.14,-144.82 1275.09,-144.4 1278,-144 1464.89,-118.4 1689.99,-100.28 1777.58,-93.71"/>
<polygon fill="grey" stroke="grey" stroke-width="2" points="1778.1,-97.19 1787.81,-92.95 1777.58,-90.21 1778.1,-97.19"/>
</g>
<!-- 21 -->
<g id="node22" class="node">
<title>21</title>
<path fill="none" stroke="#56d8c9" stroke-width="2" stroke-dasharray="5,2" d="M2972.5,-182.5C2972.5,-182.5 2889.5,-182.5 2889.5,-182.5 2883.5,-182.5 2877.5,-176.5 2877.5,-170.5 2877.5,-170.5 2877.5,-158.5 2877.5,-158.5 2877.5,-152.5 2883.5,-146.5 2889.5,-146.5 2889.5,-146.5 2972.5,-146.5 2972.5,-146.5 2978.5,-146.5 2984.5,-152.5 2984.5,-158.5 2984.5,-158.5 2984.5,-170.5 2984.5,-170.5 2984.5,-176.5 2978.5,-182.5 2972.5,-182.5"/>
<text text-anchor="middle" x="2931" y="-167.5" font-family="sans" font-size="10.00">kallisto</text>
<text text-anchor="middle" x="2931" y="-156.5" font-family="sans" font-size="10.00">project: r_peoriensis</text>
</g>
<!-- 21&#45;&gt;1 -->
<g id="edge17" class="edge">
<title>21&#45;&gt;1</title>
<path fill="none" stroke="grey" stroke-width="2" d="M2880.04,-146.49C2876,-145.52 2871.95,-144.67 2868,-144 2648.19,-106.77 2086.95,-159.83 1852.01,-107.51"/>
<polygon fill="grey" stroke="grey" stroke-width="2" points="1852.63,-104.06 1842.1,-105.19 1851.03,-110.88 1852.63,-104.06"/>
</g>
<!-- 22 -->
<g id="node23" class="node">
<title>22</title>
<path fill="none" stroke="#70d856" stroke-width="2" stroke-dasharray="5,2" d="M3021,-257C3021,-257 2841,-257 2841,-257 2835,-257 2829,-251 2829,-245 2829,-245 2829,-233 2829,-233 2829,-227 2835,-221 2841,-221 2841,-221 3021,-221 3021,-221 3027,-221 3033,-227 3033,-233 3033,-233 3033,-245 3033,-245 3033,-251 3027,-257 3021,-257"/>
<text text-anchor="middle" x="2931" y="-242" font-family="sans" font-size="10.00">trim_galore</text>
<text text-anchor="middle" x="2931" y="-231" font-family="sans" font-size="10.00">subsample: PBradley002_Rp2_R213_S15</text>
</g>
<!-- 22&#45;&gt;21 -->
<g id="edge30" class="edge">
<title>22&#45;&gt;21</title>
<path fill="none" stroke="grey" stroke-width="2" d="M2931,-220.82C2931,-212.42 2931,-202.12 2931,-192.69"/>
<polygon fill="grey" stroke="grey" stroke-width="2" points="2934.5,-192.56 2931,-182.56 2927.5,-192.56 2934.5,-192.56"/>
</g>
<!-- 23 -->
<g id="node24" class="node">
<title>23</title>
<path fill="none" stroke="#56d89a" stroke-width="2" stroke-dasharray="5,2" d="M3195,-185C3195,-185 3015,-185 3015,-185 3009,-185 3003,-179 3003,-173 3003,-173 3003,-156 3003,-156 3003,-150 3009,-144 3015,-144 3015,-144 3195,-144 3195,-144 3201,-144 3207,-150 3207,-156 3207,-156 3207,-173 3207,-173 3207,-179 3201,-185 3195,-185"/>
<text text-anchor="middle" x="3105" y="-173" font-family="sans" font-size="10.00">fastqc</text>
<text text-anchor="middle" x="3105" y="-162" font-family="sans" font-size="10.00">project: r_peoriensis</text>
<text text-anchor="middle" x="3105" y="-151" font-family="sans" font-size="10.00">subsample: PBradley002_Rp3_R213_S16</text>
</g>
<!-- 23&#45;&gt;1 -->
<g id="edge18" class="edge">
<title>23&#45;&gt;1</title>
<path fill="none" stroke="grey" stroke-width="2" d="M3002.84,-145.1C2999.53,-144.7 2996.24,-144.33 2993,-144 2743.62,-118.49 2114.1,-166.21 1852.02,-107.52"/>
<polygon fill="grey" stroke="grey" stroke-width="2" points="1852.63,-104.07 1842.09,-105.2 1851.03,-110.88 1852.63,-104.07"/>
</g>
<!-- 24&#45;&gt;1 -->
<g id="edge19" class="edge">
<title>24&#45;&gt;1</title>
<path fill="none" stroke="grey" stroke-width="2" d="M1491.21,-145.52C1494.17,-145 1497.11,-144.5 1500,-144 1600.28,-126.76 1718.63,-107 1777.63,-97.2"/>
<polygon fill="grey" stroke="grey" stroke-width="2" points="1778.31,-100.63 1787.6,-95.54 1777.16,-93.73 1778.31,-100.63"/>
</g>
<!-- 25 -->
<g id="node26" class="node">
<title>25</title>
<path fill="none" stroke="#56d8c9" stroke-width="2" stroke-dasharray="5,2" d="M3320.5,-182.5C3320.5,-182.5 3237.5,-182.5 3237.5,-182.5 3231.5,-182.5 3225.5,-176.5 3225.5,-170.5 3225.5,-170.5 3225.5,-158.5 3225.5,-158.5 3225.5,-152.5 3231.5,-146.5 3237.5,-146.5 3237.5,-146.5 3320.5,-146.5 3320.5,-146.5 3326.5,-146.5 3332.5,-152.5 3332.5,-158.5 3332.5,-158.5 3332.5,-170.5 3332.5,-170.5 3332.5,-176.5 3326.5,-182.5 3320.5,-182.5"/>
<text text-anchor="middle" x="3279" y="-167.5" font-family="sans" font-size="10.00">kallisto</text>
<text text-anchor="middle" x="3279" y="-156.5" font-family="sans" font-size="10.00">project: r_peoriensis</text>
</g>
<!-- 25&#45;&gt;1 -->
<g id="edge20" class="edge">
<title>25&#45;&gt;1</title>
<path fill="none" stroke="grey" stroke-width="2" d="M3228.05,-146.45C3224,-145.49 3219.95,-144.65 3216,-144 2919.81,-95.21 2162.68,-176.51 1852.05,-107.52"/>
<polygon fill="grey" stroke="grey" stroke-width="2" points="1852.62,-104.06 1842.09,-105.22 1851.04,-110.88 1852.62,-104.06"/>
</g>
<!-- 26 -->
<g id="node27" class="node">
<title>26</title>
<path fill="none" stroke="#70d856" stroke-width="2" stroke-dasharray="5,2" d="M3369,-257C3369,-257 3189,-257 3189,-257 3183,-257 3177,-251 3177,-245 3177,-245 3177,-233 3177,-233 3177,-227 3183,-221 3189,-221 3189,-221 3369,-221 3369,-221 3375,-221 3381,-227 3381,-233 3381,-233 3381,-245 3381,-245 3381,-251 3375,-257 3369,-257"/>
<text text-anchor="middle" x="3279" y="-242" font-family="sans" font-size="10.00">trim_galore</text>
<text text-anchor="middle" x="3279" y="-231" font-family="sans" font-size="10.00">subsample: PBradley002_Rp3_R213_S16</text>
</g>
<!-- 26&#45;&gt;25 -->
<g id="edge32" class="edge">
<title>26&#45;&gt;25</title>
<path fill="none" stroke="grey" stroke-width="2" d="M3279,-220.82C3279,-212.42 3279,-202.12 3279,-192.69"/>
<polygon fill="grey" stroke="grey" stroke-width="2" points="3282.5,-192.56 3279,-182.56 3275.5,-192.56 3282.5,-192.56"/>
</g>
<!-- 27 -->
<g id="node28" class="node">
<title>27</title>
<path fill="none" stroke="#56d86b" stroke-width="2" d="M1955.5,-108C1955.5,-108 1872.5,-108 1872.5,-108 1866.5,-108 1860.5,-102 1860.5,-96 1860.5,-96 1860.5,-84 1860.5,-84 1860.5,-78 1866.5,-72 1872.5,-72 1872.5,-72 1955.5,-72 1955.5,-72 1961.5,-72 1967.5,-78 1967.5,-84 1967.5,-84 1967.5,-96 1967.5,-96 1967.5,-102 1961.5,-108 1955.5,-108"/>
<text text-anchor="middle" x="1914" y="-93" font-family="sans" font-size="10.00">merge_kallisto</text>
<text text-anchor="middle" x="1914" y="-82" font-family="sans" font-size="10.00">project: r_peoriensis</text>
</g>
<!-- 27&#45;&gt;0 -->
<g id="edge2" class="edge">
<title>27&#45;&gt;0</title>
<path fill="none" stroke="grey" stroke-width="2" d="M1901.64,-71.7C1895.77,-63.47 1888.63,-53.48 1882.16,-44.42"/>
<polygon fill="grey" stroke="grey" stroke-width="2" points="1884.88,-42.21 1876.22,-36.1 1879.18,-46.28 1884.88,-42.21"/>
</g>
</g>
</svg>
