<?xml version="1.0" encoding="UTF-8" standalone="no"?>
<!DOCTYPE svg PUBLIC "-//W3C//DTD SVG 1.1//EN"
 "http://www.w3.org/Graphics/SVG/1.1/DTD/svg11.dtd">
<!-- Generated by graphviz version 8.0.5 (0)
 -->
<!-- Title: snakemake_dag Pages: 1 -->
<svg width="493pt" height="482pt"
 viewBox="0.00 0.00 492.50 481.75" xmlns="http://www.w3.org/2000/svg" xmlns:xlink="http://www.w3.org/1999/xlink">
<g id="graph0" class="graph" transform="scale(1 1) rotate(0) translate(4 477.75)">
<title>snakemake_dag</title>
<polygon fill="white" stroke="none" points="-4,4 -4,-477.75 488.5,-477.75 488.5,4 -4,4"/>
<!-- 0 -->
<g id="node1" class="node">
<title>0</title>
<path fill="none" stroke="#8fd856" stroke-width="2" d="M275.88,-36C275.88,-36 245.88,-36 245.88,-36 239.88,-36 233.88,-30 233.88,-24 233.88,-24 233.88,-12 233.88,-12 233.88,-6 239.88,0 245.88,0 245.88,0 275.88,0 275.88,0 281.88,0 287.88,-6 287.88,-12 287.88,-12 287.88,-24 287.88,-24 287.88,-30 281.88,-36 275.88,-36"/>
<text text-anchor="middle" x="260.88" y="-14.12" font-family="sans" font-size="10.00">all</text>
</g>
<!-- 1 -->
<g id="node2" class="node">
<title>1</title>
<path fill="none" stroke="#d85656" stroke-width="2" d="M275.88,-108C275.88,-108 245.88,-108 245.88,-108 239.88,-108 233.88,-102 233.88,-96 233.88,-96 233.88,-84 233.88,-84 233.88,-78 239.88,-72 245.88,-72 245.88,-72 275.88,-72 275.88,-72 281.88,-72 287.88,-78 287.88,-84 287.88,-84 287.88,-96 287.88,-96 287.88,-102 281.88,-108 275.88,-108"/>
<text text-anchor="middle" x="260.88" y="-86.12" font-family="sans" font-size="10.00">deseq2</text>
</g>
<!-- 1&#45;&gt;0 -->
<g id="edge1" class="edge">
<title>1&#45;&gt;0</title>
<path fill="none" stroke="grey" stroke-width="2" d="M260.88,-71.34C260.88,-64.75 260.88,-57.08 260.88,-49.67"/>
<polygon fill="grey" stroke="grey" stroke-width="2" points="264.38,-49.9 260.88,-39.9 257.38,-49.9 264.38,-49.9"/>
</g>
<!-- 2 -->
<g id="node3" class="node">
<title>2</title>
<path fill="none" stroke="#56d8b9" stroke-width="2" d="M288.38,-180C288.38,-180 233.38,-180 233.38,-180 227.38,-180 221.38,-174 221.38,-168 221.38,-168 221.38,-156 221.38,-156 221.38,-150 227.38,-144 233.38,-144 233.38,-144 288.38,-144 288.38,-144 294.38,-144 300.38,-150 300.38,-156 300.38,-156 300.38,-168 300.38,-168 300.38,-174 294.38,-180 288.38,-180"/>
<text text-anchor="middle" x="260.88" y="-158.12" font-family="sans" font-size="10.00">merge_kallisto</text>
</g>
<!-- 2&#45;&gt;1 -->
<g id="edge2" class="edge">
<title>2&#45;&gt;1</title>
<path fill="none" stroke="grey" stroke-width="2" d="M260.88,-143.34C260.88,-136.75 260.88,-129.08 260.88,-121.67"/>
<polygon fill="grey" stroke="grey" stroke-width="2" points="264.38,-121.9 260.88,-111.9 257.38,-121.9 264.38,-121.9"/>
</g>
<!-- 3 -->
<g id="node4" class="node">
<title>3</title>
<path fill="none" stroke="#56d892" stroke-width="2" d="M275.88,-252C275.88,-252 245.88,-252 245.88,-252 239.88,-252 233.88,-246 233.88,-240 233.88,-240 233.88,-228 233.88,-228 233.88,-222 239.88,-216 245.88,-216 245.88,-216 275.88,-216 275.88,-216 281.88,-216 287.88,-222 287.88,-228 287.88,-228 287.88,-240 287.88,-240 287.88,-246 281.88,-252 275.88,-252"/>
<text text-anchor="middle" x="260.88" y="-230.12" font-family="sans" font-size="10.00">multiqc</text>
</g>
<!-- 3&#45;&gt;2 -->
<g id="edge3" class="edge">
<title>3&#45;&gt;2</title>
<path fill="none" stroke="grey" stroke-width="2" d="M260.88,-215.34C260.88,-208.75 260.88,-201.08 260.88,-193.67"/>
<polygon fill="grey" stroke="grey" stroke-width="2" points="264.38,-193.9 260.88,-183.9 257.38,-193.9 264.38,-193.9"/>
</g>
<!-- 4 -->
<g id="node5" class="node">
<title>4</title>
<path fill="none" stroke="#b6d856" stroke-width="2" d="M275.88,-324C275.88,-324 245.88,-324 245.88,-324 239.88,-324 233.88,-318 233.88,-312 233.88,-312 233.88,-300 233.88,-300 233.88,-294 239.88,-288 245.88,-288 245.88,-288 275.88,-288 275.88,-288 281.88,-288 287.88,-294 287.88,-300 287.88,-300 287.88,-312 287.88,-312 287.88,-318 281.88,-324 275.88,-324"/>
<text text-anchor="middle" x="260.88" y="-302.12" font-family="sans" font-size="10.00">fastqc</text>
</g>
<!-- 4&#45;&gt;3 -->
<g id="edge4" class="edge">
<title>4&#45;&gt;3</title>
<path fill="none" stroke="grey" stroke-width="2" d="M260.88,-287.34C260.88,-280.75 260.88,-273.08 260.88,-265.67"/>
<polygon fill="grey" stroke="grey" stroke-width="2" points="264.38,-265.9 260.88,-255.9 257.38,-265.9 264.38,-265.9"/>
</g>
<!-- 5 -->
<g id="node6" class="node">
<title>5</title>
<path fill="none" stroke="#56a9d8" stroke-width="2" stroke-dasharray="5,2" d="M353.5,-473.75C353.5,-473.75 194.25,-473.75 194.25,-473.75 188.25,-473.75 182.25,-467.75 182.25,-461.75 182.25,-461.75 182.25,-444 182.25,-444 182.25,-438 188.25,-432 194.25,-432 194.25,-432 353.5,-432 353.5,-432 359.5,-432 365.5,-438 365.5,-444 365.5,-444 365.5,-461.75 365.5,-461.75 365.5,-467.75 359.5,-473.75 353.5,-473.75"/>
<text text-anchor="middle" x="273.88" y="-460.25" font-family="sans" font-size="10.00">symlink_files</text>
<text text-anchor="middle" x="273.88" y="-449" font-family="sans" font-size="10.00">project: Mycolicibacterium_smegmatis</text>
<text text-anchor="middle" x="273.88" y="-437.75" font-family="sans" font-size="10.00">subsample: test</text>
</g>
<!-- 5&#45;&gt;4 -->
<g id="edge7" class="edge">
<title>5&#45;&gt;4</title>
<path fill="none" stroke="grey" stroke-width="2" d="M272.01,-431.12C269.82,-406.64 266.15,-365.74 263.62,-337.63"/>
<polygon fill="grey" stroke="grey" stroke-width="2" points="266.87,-337.63 262.49,-327.98 259.9,-338.25 266.87,-337.63"/>
</g>
<!-- 6 -->
<g id="node7" class="node">
<title>6</title>
<path fill="none" stroke="#56d0d8" stroke-width="2" d="M221,-396C221,-396 172.75,-396 172.75,-396 166.75,-396 160.75,-390 160.75,-384 160.75,-384 160.75,-372 160.75,-372 160.75,-366 166.75,-360 172.75,-360 172.75,-360 221,-360 221,-360 227,-360 233,-366 233,-372 233,-372 233,-384 233,-384 233,-390 227,-396 221,-396"/>
<text text-anchor="middle" x="196.88" y="-374.12" font-family="sans" font-size="10.00">fastq_screen</text>
</g>
<!-- 5&#45;&gt;6 -->
<g id="edge9" class="edge">
<title>5&#45;&gt;6</title>
<path fill="none" stroke="grey" stroke-width="2" d="M252.02,-431.19C243.59,-423.21 233.85,-414 224.92,-405.54"/>
<polygon fill="grey" stroke="grey" stroke-width="2" points="227.32,-403.1 217.65,-398.77 222.51,-408.19 227.32,-403.1"/>
</g>
<!-- 9 -->
<g id="node10" class="node">
<title>9</title>
<path fill="none" stroke="#d87d56" stroke-width="2" d="M340.88,-396C340.88,-396 300.88,-396 300.88,-396 294.88,-396 288.88,-390 288.88,-384 288.88,-384 288.88,-372 288.88,-372 288.88,-366 294.88,-360 300.88,-360 300.88,-360 340.88,-360 340.88,-360 346.88,-360 352.88,-366 352.88,-372 352.88,-372 352.88,-384 352.88,-384 352.88,-390 346.88,-396 340.88,-396"/>
<text text-anchor="middle" x="320.88" y="-374.12" font-family="sans" font-size="10.00">trim_galore</text>
</g>
<!-- 5&#45;&gt;9 -->
<g id="edge13" class="edge">
<title>5&#45;&gt;9</title>
<path fill="none" stroke="grey" stroke-width="2" d="M287.22,-431.19C292.01,-423.75 297.51,-415.23 302.65,-407.26"/>
<polygon fill="grey" stroke="grey" stroke-width="2" points="306.09,-408.83 308.57,-398.53 300.21,-405.04 306.09,-408.83"/>
</g>
<!-- 6&#45;&gt;3 -->
<g id="edge5" class="edge">
<title>6&#45;&gt;3</title>
<path fill="none" stroke="grey" stroke-width="2" d="M200.89,-359.03C205.37,-340.62 213.51,-311.47 224.88,-288 228.91,-279.66 234.13,-271.13 239.34,-263.43"/>
<polygon fill="grey" stroke="grey" stroke-width="2" points="242.91,-265.03 245.82,-254.84 237.19,-260.99 242.91,-265.03"/>
</g>
<!-- 7 -->
<g id="node8" class="node">
<title>7</title>
<path fill="none" stroke="#68d856" stroke-width="2" stroke-dasharray="5,2" d="M151.75,-470.88C151.75,-470.88 12,-470.88 12,-470.88 6,-470.88 0,-464.88 0,-458.88 0,-458.88 0,-446.88 0,-446.88 0,-440.88 6,-434.88 12,-434.88 12,-434.88 151.75,-434.88 151.75,-434.88 157.75,-434.88 163.75,-440.88 163.75,-446.88 163.75,-446.88 163.75,-458.88 163.75,-458.88 163.75,-464.88 157.75,-470.88 151.75,-470.88"/>
<text text-anchor="middle" x="81.88" y="-449" font-family="sans" font-size="10.00">download_fastq_screen_genomes</text>
</g>
<!-- 7&#45;&gt;6 -->
<g id="edge8" class="edge">
<title>7&#45;&gt;6</title>
<path fill="none" stroke="grey" stroke-width="2" d="M110.01,-434.05C124.35,-424.96 142.02,-413.76 157.67,-403.84"/>
<polygon fill="grey" stroke="grey" stroke-width="2" points="160.06,-406.2 166.63,-397.9 156.31,-400.29 160.06,-406.2"/>
</g>
<!-- 8 -->
<g id="node9" class="node">
<title>8</title>
<path fill="none" stroke="#d8cb56" stroke-width="2" d="M371.88,-324C371.88,-324 341.88,-324 341.88,-324 335.88,-324 329.88,-318 329.88,-312 329.88,-312 329.88,-300 329.88,-300 329.88,-294 335.88,-288 341.88,-288 341.88,-288 371.88,-288 371.88,-288 377.88,-288 383.88,-294 383.88,-300 383.88,-300 383.88,-312 383.88,-312 383.88,-318 377.88,-324 371.88,-324"/>
<text text-anchor="middle" x="356.88" y="-302.12" font-family="sans" font-size="10.00">kallisto</text>
</g>
<!-- 8&#45;&gt;3 -->
<g id="edge6" class="edge">
<title>8&#45;&gt;3</title>
<path fill="none" stroke="grey" stroke-width="2" d="M332.4,-287.15C321.23,-279.01 307.8,-269.22 295.61,-260.33"/>
<polygon fill="grey" stroke="grey" stroke-width="2" points="297.45,-256.88 287.3,-253.81 293.32,-262.53 297.45,-256.88"/>
</g>
<!-- 9&#45;&gt;8 -->
<g id="edge10" class="edge">
<title>9&#45;&gt;8</title>
<path fill="none" stroke="grey" stroke-width="2" d="M329.96,-359.34C333.56,-352.34 337.79,-344.12 341.82,-336.28"/>
<polygon fill="grey" stroke="grey" stroke-width="2" points="345.21,-337.4 346.67,-326.9 338.98,-334.19 345.21,-337.4"/>
</g>
<!-- 10 -->
<g id="node11" class="node">
<title>10</title>
<path fill="none" stroke="#567bd8" stroke-width="2" stroke-dasharray="5,2" d="M449.88,-470.88C449.88,-470.88 419.88,-470.88 419.88,-470.88 413.88,-470.88 407.88,-464.88 407.88,-458.88 407.88,-458.88 407.88,-446.88 407.88,-446.88 407.88,-440.88 413.88,-434.88 419.88,-434.88 419.88,-434.88 449.88,-434.88 449.88,-434.88 455.88,-434.88 461.88,-440.88 461.88,-446.88 461.88,-446.88 461.88,-458.88 461.88,-458.88 461.88,-464.88 455.88,-470.88 449.88,-470.88"/>
<text text-anchor="middle" x="434.88" y="-449" font-family="sans" font-size="10.00">gffread</text>
</g>
<!-- 10&#45;&gt;8 -->
<g id="edge11" class="edge">
<title>10&#45;&gt;8</title>
<path fill="none" stroke="grey" stroke-width="2" d="M423.02,-434.06C415.99,-423.23 407.07,-409.02 399.88,-396 389.12,-376.54 378.24,-353.98 370.11,-336.45"/>
<polygon fill="grey" stroke="grey" stroke-width="2" points="373.07,-334.32 365.72,-326.68 366.71,-337.23 373.07,-334.32"/>
</g>
<!-- 11 -->
<g id="node12" class="node">
<title>11</title>
<path fill="none" stroke="#d8a456" stroke-width="2" d="M472.5,-396C472.5,-396 421.25,-396 421.25,-396 415.25,-396 409.25,-390 409.25,-384 409.25,-384 409.25,-372 409.25,-372 409.25,-366 415.25,-360 421.25,-360 421.25,-360 472.5,-360 472.5,-360 478.5,-360 484.5,-366 484.5,-372 484.5,-372 484.5,-384 484.5,-384 484.5,-390 478.5,-396 472.5,-396"/>
<text text-anchor="middle" x="446.88" y="-374.12" font-family="sans" font-size="10.00">kallisto_index</text>
</g>
<!-- 10&#45;&gt;11 -->
<g id="edge14" class="edge">
<title>10&#45;&gt;11</title>
<path fill="none" stroke="grey" stroke-width="2" d="M437.78,-434.23C439,-426.83 440.45,-417.99 441.84,-409.58"/>
<polygon fill="grey" stroke="grey" stroke-width="2" points="445.74,-409.42 443.91,-398.98 438.84,-408.28 445.74,-409.42"/>
</g>
<!-- 11&#45;&gt;8 -->
<g id="edge12" class="edge">
<title>11&#45;&gt;8</title>
<path fill="none" stroke="grey" stroke-width="2" d="M424.16,-359.34C413.8,-351.27 401.32,-341.57 389.94,-332.72"/>
<polygon fill="grey" stroke="grey" stroke-width="2" points="391.93,-329.28 381.89,-325.9 387.64,-334.8 391.93,-329.28"/>
</g>
</g>
</svg>